# xmcd CD database file
#
# Track frame offsets:
#	150
#	16345
#	34145
#	54158
#	68868
#	86450
#	106445
#	124305
#	144680
#	166430
#	191273
#
# Disc length: 2850 seconds
#
# Revision: 3
# Processed by: cddbd v1.4PL0 Copyright (c) Steve Scherf et al.
# Submitted via: CDex 1.40Release
#
DISCID=910b200b
DTITLE=Dianne Davidson - Breaking All The Rules
DYEAR=1900
DGENRE=Blues
TTITLE0=Trouble Again
TTITLE1=What'm I Gonna Do
TTITLE2=Song Of Bernadette
TTITLE3=Built For Comfort
TTITLE4=Song For My Father
TTITLE5=So Lucky
TTITLE6=Keep My Love Light Burnin'
TTITLE7=Tonight I'll Dream That You Care
TTITLE8=Killer Without A Heart
TTITLE9=Everything To Me
TTITLE10=Heaven Bound
EXTD=1986 Second Wave Records ID3G: 0
EXTT0=
EXTT1=
EXTT2=
EXTT3=
EXTT4=
EXTT5=
EXTT6=
EXTT7=
EXTT8=
EXTT9=
EXTT10=
PLAYORDER=
